HIERARCHY
ROOT Hips
{
	OFFSET 0.00000 0.00000 0.00000
	CHANNELS 6 Xposition Yposition Zposition Zrotation Yrotation Xrotation 
	JOINT RightUpLegDummy
	{
		OFFSET 0 0 0
		CHANNELS 3 Zrotation Yrotation Xrotation
		JOINT RightUpLeg
		{
			OFFSET -3.52197 -3.41223 0.04002
			CHANNELS 3 Zrotation Yrotation Xrotation
			JOINT RightLeg
			{
				OFFSET 0.00006 -17.42390 1.60435
				CHANNELS 3 Zrotation Yrotation Xrotation
				JOINT RightFoot
				{
					OFFSET 0.06153 -16.50078 -1.63901
					CHANNELS 3 Zrotation Yrotation Xrotation
					JOINT RightToes
					{
						OFFSET 0.00298 -1.73825 3.34613
						CHANNELS 3 Zrotation Yrotation Xrotation
						End Site
						{
							OFFSET 0.00480 -0.05416 3.85043
						}
					}
				}
			}
		}
	}
	JOINT SpineDummy
	{
		OFFSET 0 0 0
		CHANNELS 3 Zrotation Yrotation Xrotation
		JOINT Spine
		{
			OFFSET 0.00000 4.68130 0.00000
			CHANNELS 3 Zrotation Yrotation Xrotation
			JOINT Spine1
			{
				OFFSET -0.00000 10.10138 0.05002
				CHANNELS 3 Zrotation Yrotation Xrotation
				JOINT HEadDummy
				{
					OFFSET 0 0 0
					CHANNELS 3 Zrotation Yrotation Xrotation
					JOINT Head
					{
						OFFSET -0.00000 3.43865 0.00438
						CHANNELS 3 Zrotation Yrotation Xrotation
						End Site
						{
							OFFSET -0.11417 5.02924 0.98962
						}
					}
				}
				JOINT LeftShoulder1Dummy
				{
					OFFSET 0 0 0
					CHANNELS 3 Zrotation Yrotation Xrotation
					JOINT LeftShoulder1
					{
						OFFSET 3.53937 -0.14262 -0.08662
						CHANNELS 3 Zrotation Yrotation Xrotation
						JOINT LeftArm
						{
							OFFSET 4.04833 -0.00133 0.12681
							CHANNELS 3 Zrotation Yrotation Xrotation
							JOINT LeftForeArm
							{
								OFFSET 10.33880 -0.01036 -0.55515
								CHANNELS 3 Zrotation Yrotation Xrotation
								JOINT LeftHand
								{
									OFFSET 8.69677 0.07543 0.40060
									CHANNELS 3 Zrotation Yrotation Xrotation
									End Site
									{
										OFFSET 5.28377 -0.21905 0.59205
									}
								}
							}
						}
					}
				}
				JOINT RightShoulderDummy
				{
					OFFSET 0 0 0
					CHANNELS 3 Zrotation Yrotation Xrotation
					JOINT RightShoulder
					{
						OFFSET -3.53937 -0.14262 -0.08660
						CHANNELS 3 Zrotation Yrotation Xrotation
						JOINT RightArm
						{
							OFFSET -4.04833 -0.00133 0.12683
							CHANNELS 3 Zrotation Yrotation Xrotation
							JOINT RightForeArm
							{
								OFFSET -10.37987 -0.01039 -0.55511
								CHANNELS 3 Zrotation Yrotation Xrotation
								JOINT RightHand
								{
									OFFSET -8.67398 0.07538 0.40058
									CHANNELS 3 Zrotation Yrotation Xrotation
									End Site
									{
										OFFSET -5.24810 -0.21916 0.59204
									}
								}
							}
						}
					}
				}
			}
		}
	}
	JOINT LeftUpLegDummy
	{
		OFFSET 0 0 0
		CHANNELS 3 Zrotation Yrotation Xrotation
		JOINT LeftUpLeg
		{
			OFFSET 3.52197 -3.41223 0.04002
			CHANNELS 3 Zrotation Yrotation Xrotation
			JOINT LeftLeg
			{
				OFFSET -0.00012 -17.42399 1.60337
				CHANNELS 3 Zrotation Yrotation Xrotation
				JOINT LeftFoot
				{
					OFFSET -0.09972 -16.50070 -1.63802
					CHANNELS 3 Zrotation Yrotation Xrotation
					JOINT LeftToes
					{
						OFFSET -0.01575 -1.73823 3.34611
						CHANNELS 3 Zrotation Yrotation Xrotation
						End Site
						{
							OFFSET 0.03150 -0.01868 3.85031
						}
					}
				}
			}
		}
	}
}
MOTION
Frames: 14
Frame Time: 0.033333
-0.7386 40.0951 -4.8986 -2.0460 -10.2266 -2.0625 0.0000 0.0000 0.0000 2.0203 -0.4649 -0.7859 -0.9475 1.6030 4.4911 -0.7195 0.0394 -1.6329 0.0000 -0.0000 0.0000 0.0000 0.0000 0.0000 0.7579 -0.2125 2.4047 3.5629 -0.9167 0.2594 -0.0000 0.0000 -0.0000 0.6713 0.8867 -0.0438 -0.0000 0.0000 -0.0000 -34.7399 -2.7009 2.5299 -44.8333 -14.9842 -17.5729 -10.3869 5.1163 48.5294 15.8511 -2.9773 -1.1209 -0.0000 0.0000 -0.0000 34.7372 5.1616 3.5309 39.6634 4.9302 -16.4527 10.8079 -0.2654 24.3461 -11.6015 1.3350 -0.6611 0.0000 0.0000 0.0000 5.4325 4.1735 1.1564 3.9796 15.6382 8.1287 -2.2713 0.1586 -4.8633 0.0000 0.0000 -0.0000
-0.7444 40.0951 -4.8883 -2.0609 -10.1164 -2.0691 0.0000 0.0000 0.0000 2.0392 -0.4674 -0.7387 -0.9621 1.5073 4.4709 -0.7167 0.0393 -1.6559 0.0000 -0.0000 0.0000 0.0000 0.0000 0.0000 0.7680 -0.2065 2.3878 3.5764 -0.9167 0.2635 -0.0000 0.0000 -0.0000 0.5984 0.9512 -0.0275 -0.0000 0.0000 -0.0000 -34.7803 -2.7009 2.5299 -44.8232 -15.0390 -17.3431 -10.5304 5.1247 48.1801 15.9827 -2.8649 -1.1158 -0.0000 0.0000 -0.0000 34.7184 5.1597 3.5290 39.6828 4.9849 -16.3271 10.8348 -0.3675 24.9892 -12.1618 1.8937 -0.7480 0.0000 0.0000 0.0000 5.4553 4.1735 1.1564 3.9696 15.5201 8.1291 -2.3248 0.1620 -4.8736 0.0000 0.0000 -0.0000
-0.7590 40.0951 -4.8739 -2.0592 -9.8629 -2.1054 0.0000 0.0000 0.0000 2.0444 -0.5006 -0.6414 -0.9819 1.2954 4.4494 -0.7412 0.0410 -1.7082 0.0000 -0.0000 0.0000 0.0000 0.0000 0.0000 0.7191 -0.1987 2.3852 3.6192 -0.9167 0.2776 -0.0000 0.0000 -0.0000 0.5407 0.9668 0.0123 -0.0000 0.0000 -0.0000 -34.8101 -2.7009 2.5299 -44.8136 -15.1932 -16.9958 -10.7226 5.1326 47.8263 16.1836 -2.7883 -1.1201 -0.0000 0.0000 -0.0000 34.6668 5.1479 3.5199 39.7991 5.0607 -16.1787 10.8612 -0.4623 25.7067 -12.6275 2.3940 -0.8279 0.0000 0.0000 0.0000 5.4791 4.1748 1.1749 3.9191 15.2731 8.1080 -2.3331 0.1626 -4.8559 0.0000 0.0000 -0.0000
-0.7744 40.0974 -4.8659 -2.0163 -9.5201 -2.1100 0.0000 0.0000 0.0000 1.9965 -0.5729 -0.6030 -0.9892 1.0254 4.4551 -0.7809 0.0437 -1.7656 0.0000 -0.0000 0.0000 0.0000 0.0000 0.0000 0.6056 -0.1904 2.4109 3.6673 -0.9167 0.2216 -0.0000 0.0000 -0.0000 0.5455 0.8001 0.1010 -0.0000 0.0000 -0.0000 -34.7605 -2.7009 2.5299 -44.8745 -15.3759 -16.7582 -10.8328 5.1368 47.6310 16.3987 -2.8779 -1.1476 -0.0000 0.0000 -0.0000 34.6323 5.1273 3.5085 39.9839 5.0609 -16.1931 10.8339 -0.4479 25.9421 -12.5817 2.4559 -0.8313 0.0000 0.0000 0.0000 5.4464 4.1329 1.1521 3.8577 14.9959 8.0171 -2.2644 0.1581 -4.7824 0.0000 0.0000 -0.0000
-0.7837 40.1002 -4.8593 -1.9673 -9.1478 -2.0464 0.0000 0.0000 0.0000 1.9226 -0.6582 -0.6508 -0.9792 0.7432 4.4794 -0.7922 0.0446 -1.8165 0.0000 -0.0000 0.0000 0.0000 0.0000 0.0000 0.5140 -0.1869 2.3986 3.7045 -0.9145 0.1450 -0.0000 0.0000 -0.0000 0.5000 0.5749 0.2287 -0.0000 0.0000 -0.0000 -34.6880 -2.6989 2.5266 -44.9751 -15.5377 -16.6216 -10.8998 5.1425 47.4029 16.7515 -3.2005 -1.2177 -0.0000 0.0000 -0.0000 34.6696 5.1255 3.5111 40.1150 4.9824 -16.3545 10.7627 -0.3597 25.8038 -12.4309 2.3796 -0.8133 0.0000 0.0000 0.0000 5.3703 4.0311 1.0615 3.8331 14.7409 7.8888 -2.2141 0.1549 -4.6893 0.0000 0.0000 -0.0000
-0.7908 40.1019 -4.8418 -1.9587 -8.7697 -1.9778 0.0000 0.0000 0.0000 1.8824 -0.7273 -0.6688 -0.9654 0.4465 4.4841 -0.7754 0.0437 -1.8715 0.0000 -0.0000 0.0000 0.0000 0.0000 0.0000 0.5103 -0.2108 2.2659 3.7142 -0.9448 0.2463 -0.0000 0.0000 -0.0000 0.3467 0.4808 0.3203 -0.0000 0.0000 -0.0000 -34.6278 -2.6813 2.5152 -45.0642 -15.7088 -16.4694 -10.9905 5.1494 47.1190 17.2577 -3.6113 -1.3142 -0.0000 0.0000 -0.0000 34.7728 5.1495 3.5299 40.1605 4.9519 -16.5100 10.6978 -0.2889 25.6449 -12.5294 2.4395 -0.8261 0.0000 0.0000 0.0000 5.3220 3.9193 0.9828 3.8413 14.4794 7.7788 -2.2423 0.1567 -4.6308 0.0000 0.0000 -0.0000
-0.8031 40.1036 -4.8104 -1.9776 -8.3949 -1.9703 0.0000 0.0000 0.0000 1.8827 -0.7784 -0.5720 -0.9668 0.1313 4.4483 -0.7770 0.0440 -1.9386 0.0000 -0.0000 0.0000 0.0000 0.0000 0.0000 0.5621 -0.2686 2.0679 3.6670 -1.0070 0.5143 -0.0000 0.0000 -0.0000 0.2182 0.5025 0.3288 -0.0000 0.0000 -0.0000 -34.5076 -2.6326 2.4880 -45.1903 -15.8498 -16.3186 -11.0618 5.1533 46.9501 17.6354 -3.7090 -1.3581 -0.0000 0.0000 -0.0000 34.8892 5.1724 3.5495 40.2217 5.0396 -16.5781 10.6630 -0.3013 25.6881 -12.6494 2.5579 -0.8462 0.0000 0.0000 0.0000 5.3213 3.8437 0.9974 3.8374 14.1952 7.6789 -2.2899 0.1598 -4.6065 0.0000 0.0000 -0.0000
-0.8202 40.1069 -4.7760 -1.9683 -8.0739 -2.0026 0.0000 0.0000 0.0000 1.8719 -0.8300 -0.4251 -0.9835 -0.1398 4.3938 -0.8172 0.0468 -2.0054 0.0000 -0.0000 0.0000 0.0000 0.0000 0.0000 0.6101 -0.3117 1.9956 3.5536 -1.0351 0.6208 -0.0000 0.0000 -0.0000 0.2497 0.5192 0.3160 -0.0000 0.0000 -0.0000 -34.3144 -2.5885 2.4581 -45.3789 -15.8131 -16.2941 -11.0410 5.1537 46.9435 17.5822 -3.3176 -1.2974 -0.0000 0.0000 -0.0000 34.9866 5.1792 3.5608 40.3483 5.1096 -16.5919 10.6504 -0.3895 25.8962 -12.4587 2.5937 -0.8367 0.0000 0.0000 0.0000 5.3133 3.7952 1.0904 3.7981 13.9541 7.5336 -2.2867 0.1596 -4.5713 0.0000 0.0000 -0.0000
-0.8350 40.1114 -4.7493 -1.9147 -7.8650 -2.0343 0.0000 0.0000 0.0000 1.8209 -0.8940 -0.3127 -0.9943 -0.2884 4.3510 -0.8620 0.0499 -2.0587 0.0000 -0.0000 0.0000 0.0000 0.0000 0.0000 0.6462 -0.2773 2.1308 3.4318 -0.9700 0.4172 -0.0000 0.0000 -0.0000 0.3595 0.5195 0.3528 -0.0000 0.0000 -0.0000 -34.1979 -2.5777 2.4466 -45.4992 -15.6077 -16.4056 -10.9615 5.1525 47.0225 17.1922 -2.8680 -1.2036 -0.0000 0.0000 -0.0000 35.0475 5.1844 3.5684 40.4697 5.0379 -16.5737 10.6597 -0.4822 26.0790 -12.0958 2.6036 -0.8124 0.0000 0.0000 0.0000 5.2669 3.7519 1.2097 3.7401 13.8168 7.3397 -2.2604 0.1579 -4.5062 0.0000 0.0000 -0.0000
-0.8445 40.1146 -4.7298 -1.8578 -7.7500 -2.0783 0.0000 0.0000 0.0000 1.7610 -0.9603 -0.2169 -0.9886 -0.3357 4.3287 -0.8763 0.0509 -2.1045 0.0000 -0.0000 0.0000 0.0000 0.0000 0.0000 0.6697 -0.1752 2.2945 3.4043 -0.8543 0.2580 -0.0000 0.0000 -0.0000 0.3646 0.5330 0.3703 -0.0000 0.0000 -0.0000 -34.2859 -2.5735 2.4504 -45.4156 -15.5048 -16.5347 -10.9067 5.1484 47.1911 16.9040 -2.8828 -1.1848 -0.0000 0.0000 -0.0000 35.0257 5.1922 3.5696 40.5534 4.9774 -16.4927 10.6953 -0.5098 26.0637 -11.9015 2.5895 -0.7976 0.0000 0.0000 0.0000 5.2175 3.7157 1.3390 3.6931 13.7473 7.1684 -2.2707 0.1585 -4.4422 0.0000 0.0000 -0.0000
-0.8518 40.1155 -4.7105 -1.8313 -7.6472 -2.1411 0.0000 0.0000 0.0000 1.7307 -1.0064 -0.1096 -0.9849 -0.3899 4.3299 -0.8624 0.0502 -2.1601 0.0000 -0.0000 0.0000 0.0000 0.0000 0.0000 0.6563 -0.0864 2.2722 3.5017 -0.7889 0.4997 -0.0000 0.0000 -0.0000 0.2496 0.5351 0.2302 -0.0000 0.0000 -0.0000 -34.5089 -2.5352 2.4486 -45.1835 -15.6590 -16.6169 -10.8902 5.1422 47.4163 16.9622 -3.1999 -1.2334 -0.0000 0.0000 -0.0000 34.8876 5.1808 3.5528 40.6849 5.1614 -16.3629 10.7344 -0.4717 25.8575 -11.8769 2.3729 -0.7753 0.0000 0.0000 0.0000 5.1898 3.6791 1.4553 3.6883 13.6790 7.0826 -2.3095 0.1610 -4.4160 0.0000 0.0000 -0.0000
-0.8591 40.1155 -4.6872 -1.8232 -7.5138 -2.1734 0.0000 0.0000 0.0000 1.7237 -1.0253 -0.0404 -0.9999 -0.5025 4.3632 -0.8421 0.0491 -2.2308 0.0000 -0.0000 0.0000 0.0000 0.0000 0.0000 0.6375 -0.0641 2.1193 3.5915 -0.7969 0.9205 -0.0000 0.0000 -0.0000 0.1735 0.5687 -0.0447 -0.0000 0.0000 -0.0000 -34.6887 -2.4812 2.4377 -44.9765 -15.8075 -16.6800 -10.8833 5.1402 47.4895 17.1205 -3.2437 -1.2514 -0.0000 0.0000 -0.0000 34.7284 5.1492 3.5259 40.8789 5.5058 -16.2603 10.7467 -0.4215 25.6479 -11.8108 1.9859 -0.7344 0.0000 0.0000 0.0000 5.1585 3.6187 1.5055 3.7375 13.6067 7.0728 -2.3318 0.1625 -4.4294 0.0000 0.0000 -0.0000
-0.8649 40.1148 -4.6611 -1.8067 -7.3773 -2.1471 0.0000 0.0000 0.0000 1.7065 -1.0413 -0.0427 -1.0170 -0.6177 4.4173 -0.8331 0.0487 -2.3028 0.0000 -0.0000 0.0000 0.0000 0.0000 0.0000 0.6988 -0.0797 2.0823 3.5051 -0.8015 1.0153 -0.0000 0.0000 -0.0000 0.2491 0.7296 -0.2345 -0.0000 0.0000 -0.0000 -34.7161 -2.4721 2.4356 -44.8875 -15.6036 -16.7442 -10.8843 5.1440 47.3581 17.0080 -2.9739 -1.2053 -0.0000 0.0000 -0.0000 34.7284 5.1387 3.5216 40.9748 5.6797 -16.2138 10.7433 -0.3885 25.6115 -11.7606 1.8311 -0.7166 0.0000 0.0000 0.0000 5.1071 3.5450 1.4843 3.7987 13.5507 7.0823 -2.3326 0.1625 -4.4527 0.0000 0.0000 -0.0000
-0.8681 40.1138 -4.6368 -1.7747 -7.2648 -2.1090 0.0000 0.0000 0.0000 1.6626 -1.0823 -0.0601 -1.0124 -0.6836 4.4615 -0.8404 0.0494 -2.3623 0.0000 -0.0000 0.0000 0.0000 0.0000 0.0000 0.8257 -0.0821 2.2508 3.2860 -0.7547 0.7076 -0.0000 0.0000 -0.0000 0.4281 0.9008 -0.1783 -0.0000 0.0000 -0.0000 -34.6239 -2.5269 2.4523 -44.8821 -15.1148 -16.8165 -10.8849 5.1444 47.3407 16.6372 -2.9029 -1.1681 -0.0000 0.0000 -0.0000 34.9074 5.1715 3.5507 40.8654 5.5869 -16.1616 10.7634 -0.3553 25.7282 -11.9597 2.1118 -0.7561 0.0000 0.0000 0.0000 5.0587 3.5021 1.4578 3.8091 13.4917 7.0731 -2.3323 0.1625 -4.4590 0.0000 0.0000 -0.0000
